# xmcd
#
# Track frame offsets: 
#        182
#        12850
#        26337
#        39625
#        52875
#        65712
#        84525
#        97675
#        115325
#        131325
#        141775
#        155100
#        167475
#        183825
#        203400
#        224900
#        240225
#        260550
#
# Disc length: 3727 seconds
#
# Revision: 0
# Processed by: cddbd v1.5.1PL2 Copyright (c) Steve Scherf et al.
# Submitted via: ExactAudioCopy v0.95b3
#
DISCID=ed0e8d12
DTITLE=Edith Piaf - Una voce, un cuore CD2
DYEAR=1900
DGENRE=blues
TTITLE0=Le petit monsieur triste
TTITLE1=Sur une coline
TTITLE2=Jimmy c'est lui
TTITLE3=Les deux copains
TTITLE4=Y en a un de trop
TTITLE5=On danse sur ma chanson
TTITLE6=Embrasse moi
TTITLE7=C'était un jour de fête
TTITLE8=Où sont ils mes petits copains?
TTITLE9=L'homme des bars (dal film montmartre sur Seine)
TTITLE10=Simple comme bonjour
TTITLE11=Un coin tout blue
TTITLE12=C'est un monsieru très distingué
TTITLE13=Coup de grisou
TTITLE14=Un monsieru me suit dans la rue
TTITLE15=Les deux rengaines
TTITLE16=Il riait
TTITLE17=C'est toujours la même histoire
EXTD=
EXTT0=
EXTT1=
EXTT2=
EXTT3=
EXTT4=
EXTT5=
EXTT6=
EXTT7=
EXTT8=
EXTT9=
EXTT10=
EXTT11=
EXTT12=
EXTT13=
EXTT14=
EXTT15=
EXTT16=
EXTT17=
PLAYORDER=
